<?xml version="1.0" encoding="UTF-8" standalone="no"?>
<!DOCTYPE svg PUBLIC "-//W3C//DTD SVG 1.1//EN"
 "http://www.w3.org/Graphics/SVG/1.1/DTD/svg11.dtd">
<!-- Generated by graphviz version 2.43.0 (0)
 -->
<!-- Title: TraderDeck_Cloud_Architecture_With_Subnets Pages: 1 -->
<svg width="766pt" height="707pt"
 viewBox="0.00 0.00 765.50 706.68" xmlns="http://www.w3.org/2000/svg" xmlns:xlink="http://www.w3.org/1999/xlink">
<g id="graph0" class="graph" transform="scale(1 1) rotate(0) translate(4 702.68)">
<title>TraderDeck_Cloud_Architecture_With_Subnets</title>
<polygon fill="white" stroke="transparent" points="-4,4 -4,-702.68 761.5,-702.68 761.5,4 -4,4"/>
<g id="clust1" class="cluster">
<title>cluster_vpc</title>
<path fill="white" stroke="#9ca3af" d="M237.5,-8C237.5,-8 737.5,-8 737.5,-8 743.5,-8 749.5,-14 749.5,-20 749.5,-20 749.5,-389.25 749.5,-389.25 749.5,-395.25 743.5,-401.25 737.5,-401.25 737.5,-401.25 237.5,-401.25 237.5,-401.25 231.5,-401.25 225.5,-395.25 225.5,-389.25 225.5,-389.25 225.5,-20 225.5,-20 225.5,-14 231.5,-8 237.5,-8"/>
<text text-anchor="middle" x="487.5" y="-388.45" font-family="Times,serif" font-size="11.00">VPC 10.16.0.0/16</text>
</g>
<g id="clust2" class="cluster">
<title>cluster_pub</title>
<path fill="white" stroke="#cbd5e1" d="M245.5,-265.25C245.5,-265.25 729.5,-265.25 729.5,-265.25 735.5,-265.25 741.5,-271.25 741.5,-277.25 741.5,-277.25 741.5,-361.25 741.5,-361.25 741.5,-367.25 735.5,-373.25 729.5,-373.25 729.5,-373.25 245.5,-373.25 245.5,-373.25 239.5,-373.25 233.5,-367.25 233.5,-361.25 233.5,-361.25 233.5,-277.25 233.5,-277.25 233.5,-271.25 239.5,-265.25 245.5,-265.25"/>
<text text-anchor="middle" x="487.5" y="-360.45" font-family="Times,serif" font-size="11.00">Public Subnets</text>
</g>
<g id="clust3" class="cluster">
<title>cluster_pub_a</title>
<path fill="white" stroke="#e5e7eb" d="M253.5,-273.25C253.5,-273.25 531.5,-273.25 531.5,-273.25 537.5,-273.25 543.5,-279.25 543.5,-285.25 543.5,-285.25 543.5,-333.25 543.5,-333.25 543.5,-339.25 537.5,-345.25 531.5,-345.25 531.5,-345.25 253.5,-345.25 253.5,-345.25 247.5,-345.25 241.5,-339.25 241.5,-333.25 241.5,-333.25 241.5,-285.25 241.5,-285.25 241.5,-279.25 247.5,-273.25 253.5,-273.25"/>
<text text-anchor="middle" x="392.5" y="-332.45" font-family="Times,serif" font-size="11.00">us&#45;east&#45;1a — Public Subnet A</text>
</g>
<g id="clust4" class="cluster">
<title>cluster_pub_b</title>
<path fill="white" stroke="#e5e7eb" d="M563.5,-273.25C563.5,-273.25 721.5,-273.25 721.5,-273.25 727.5,-273.25 733.5,-279.25 733.5,-285.25 733.5,-285.25 733.5,-333.25 733.5,-333.25 733.5,-339.25 727.5,-345.25 721.5,-345.25 721.5,-345.25 563.5,-345.25 563.5,-345.25 557.5,-345.25 551.5,-339.25 551.5,-333.25 551.5,-333.25 551.5,-285.25 551.5,-285.25 551.5,-279.25 557.5,-273.25 563.5,-273.25"/>
<text text-anchor="middle" x="642.5" y="-332.45" font-family="Times,serif" font-size="11.00">us&#45;east&#45;1b — Public Subnet B</text>
</g>
<g id="clust5" class="cluster">
<title>cluster_prv</title>
<path fill="white" stroke="#cbd5e1" d="M245.5,-16C245.5,-16 644.5,-16 644.5,-16 650.5,-16 656.5,-22 656.5,-28 656.5,-28 656.5,-222.25 656.5,-222.25 656.5,-228.25 650.5,-234.25 644.5,-234.25 644.5,-234.25 245.5,-234.25 245.5,-234.25 239.5,-234.25 233.5,-228.25 233.5,-222.25 233.5,-222.25 233.5,-28 233.5,-28 233.5,-22 239.5,-16 245.5,-16"/>
<text text-anchor="middle" x="445" y="-221.45" font-family="Times,serif" font-size="11.00">Private Subnets</text>
</g>
<g id="clust6" class="cluster">
<title>cluster_app_a</title>
<path fill="white" stroke="#e5e7eb" d="M253.5,-26.62C253.5,-26.62 431.5,-26.62 431.5,-26.62 437.5,-26.62 443.5,-32.62 443.5,-38.62 443.5,-38.62 443.5,-194.25 443.5,-194.25 443.5,-200.25 437.5,-206.25 431.5,-206.25 431.5,-206.25 253.5,-206.25 253.5,-206.25 247.5,-206.25 241.5,-200.25 241.5,-194.25 241.5,-194.25 241.5,-38.62 241.5,-38.62 241.5,-32.62 247.5,-26.62 253.5,-26.62"/>
<text text-anchor="middle" x="342.5" y="-193.45" font-family="Times,serif" font-size="11.00">us&#45;east&#45;1a — Private App Subnet</text>
</g>
<g id="clust7" class="cluster">
<title>cluster_db_b</title>
<path fill="white" stroke="#e5e7eb" d="M463.5,-24C463.5,-24 636.5,-24 636.5,-24 642.5,-24 648.5,-30 648.5,-36 648.5,-36 648.5,-89.25 648.5,-89.25 648.5,-95.25 642.5,-101.25 636.5,-101.25 636.5,-101.25 463.5,-101.25 463.5,-101.25 457.5,-101.25 451.5,-95.25 451.5,-89.25 451.5,-89.25 451.5,-36 451.5,-36 451.5,-30 457.5,-24 463.5,-24"/>
<text text-anchor="middle" x="550" y="-88.45" font-family="Times,serif" font-size="11.00">us&#45;east&#45;1b — Private DB Subnet</text>
</g>
<!-- user -->
<g id="node1" class="node">
<title>user</title>
<ellipse fill="#f3f4f6" stroke="#333333" cx="225.5" cy="-667.18" rx="42.35" ry="21.43"/>
<text text-anchor="middle" x="225.5" y="-670.18" font-family="Helvetica,sans-Serif" font-size="10.00">End User</text>
<text text-anchor="middle" x="225.5" y="-659.18" font-family="Helvetica,sans-Serif" font-size="10.00">Browser</text>
</g>
<!-- route53 -->
<g id="node2" class="node">
<title>route53</title>
<ellipse fill="#e5e7eb" stroke="#333333" cx="225.5" cy="-563.46" rx="82.05" ry="21.43"/>
<text text-anchor="middle" x="225.5" y="-566.46" font-family="Helvetica,sans-Serif" font-size="10.00">Route53</text>
<text text-anchor="middle" x="225.5" y="-555.46" font-family="Helvetica,sans-Serif" font-size="10.00">(mytraderdeck.com)</text>
</g>
<!-- user&#45;&gt;route53 -->
<g id="edge1" class="edge">
<title>user&#45;&gt;route53</title>
<path fill="none" stroke="#6b7280" d="M225.5,-645.59C225.5,-631.12 225.5,-611.5 225.5,-595.18"/>
<polygon fill="#6b7280" stroke="#6b7280" points="229,-595.02 225.5,-585.02 222,-595.02 229,-595.02"/>
<text text-anchor="middle" x="242.5" y="-606.48" font-family="Times,serif" font-size="14.00">DNS</text>
</g>
<!-- cf -->
<g id="node3" class="node">
<title>cf</title>
<polygon fill="#1d4ed8" stroke="#333333" stroke-width="2" points="283,-505.25 172,-505.25 168,-501.25 168,-442.25 279,-442.25 283,-446.25 283,-505.25"/>
<polyline fill="none" stroke="#333333" stroke-width="2" points="279,-501.25 168,-501.25 "/>
<polyline fill="none" stroke="#333333" stroke-width="2" points="279,-501.25 279,-442.25 "/>
<polyline fill="none" stroke="#333333" stroke-width="2" points="279,-501.25 283,-505.25 "/>
<text text-anchor="middle" x="225.5" y="-493.25" font-family="Helvetica,sans-Serif" font-size="10.00" fill="white">CloudFront</text>
<text text-anchor="middle" x="225.5" y="-482.25" font-family="Helvetica,sans-Serif" font-size="10.00" fill="white">Behaviors:</text>
<text text-anchor="middle" x="225.5" y="-471.25" font-family="Helvetica,sans-Serif" font-size="10.00" fill="white"> / → S3 Frontend</text>
<text text-anchor="middle" x="225.5" y="-460.25" font-family="Helvetica,sans-Serif" font-size="10.00" fill="white"> /api/* → ALB</text>
<text text-anchor="middle" x="225.5" y="-449.25" font-family="Helvetica,sans-Serif" font-size="10.00" fill="white"> /logos/* → S3 Logos</text>
</g>
<!-- route53&#45;&gt;cf -->
<g id="edge2" class="edge">
<title>route53&#45;&gt;cf</title>
<path fill="none" stroke="#1d4ed8" stroke-width="2" d="M225.5,-542.12C225.5,-534.18 225.5,-524.77 225.5,-515.55"/>
<polygon fill="#1d4ed8" stroke="#1d4ed8" stroke-width="2" points="229,-515.3 225.5,-505.3 222,-515.3 229,-515.3"/>
</g>
<!-- s3_frontend -->
<g id="node4" class="node">
<title>s3_frontend</title>
<polygon fill="#bfdbfe" stroke="#333333" points="103,-317.25 100,-321.25 79,-321.25 76,-317.25 0,-317.25 0,-281.25 103,-281.25 103,-317.25"/>
<text text-anchor="middle" x="51.5" y="-296.75" font-family="Helvetica,sans-Serif" font-size="10.00">S3 Frontend (SPA)</text>
</g>
<!-- cf&#45;&gt;s3_frontend -->
<g id="edge3" class="edge">
<title>cf&#45;&gt;s3_frontend</title>
<path fill="none" stroke="#6b7280" d="M167.86,-450.57C153.72,-443.49 139.28,-434.71 127.5,-424.25 96.73,-396.92 74.34,-354.13 62.12,-326.64"/>
<polygon fill="#6b7280" stroke="#6b7280" points="65.25,-325.07 58.09,-317.26 58.82,-327.83 65.25,-325.07"/>
<text text-anchor="middle" x="147.5" y="-413.05" font-family="Times,serif" font-size="14.00">GET /</text>
</g>
<!-- s3_logos -->
<g id="node5" class="node">
<title>s3_logos</title>
<polygon fill="#bae6fd" stroke="#333333" points="217.5,-317.25 214.5,-321.25 193.5,-321.25 190.5,-317.25 121.5,-317.25 121.5,-281.25 217.5,-281.25 217.5,-317.25"/>
<text text-anchor="middle" x="169.5" y="-296.75" font-family="Helvetica,sans-Serif" font-size="10.00">S3 Logos (icons)</text>
</g>
<!-- cf&#45;&gt;s3_logos -->
<g id="edge4" class="edge">
<title>cf&#45;&gt;s3_logos</title>
<path fill="none" stroke="#6b7280" d="M187.22,-442.06C182.54,-436.63 178.39,-430.64 175.5,-424.25 161.53,-393.35 162.47,-353.6 165.26,-327.54"/>
<polygon fill="#6b7280" stroke="#6b7280" points="168.74,-327.97 166.49,-317.61 161.79,-327.11 168.74,-327.97"/>
<text text-anchor="middle" x="220" y="-413.05" font-family="Times,serif" font-size="14.00">GET /logos/*</text>
</g>
<!-- alb_a -->
<g id="node6" class="node">
<title>alb_a</title>
<polygon fill="#1d4ed8" stroke="#333333" points="333,-317.25 254,-317.25 250,-313.25 250,-281.25 329,-281.25 333,-285.25 333,-317.25"/>
<polyline fill="none" stroke="#333333" points="329,-313.25 250,-313.25 "/>
<polyline fill="none" stroke="#333333" points="329,-313.25 329,-281.25 "/>
<polyline fill="none" stroke="#333333" points="329,-313.25 333,-317.25 "/>
<text text-anchor="middle" x="291.5" y="-302.25" font-family="Helvetica,sans-Serif" font-size="10.00" fill="white">ALB (AZ A)</text>
<text text-anchor="middle" x="291.5" y="-291.25" font-family="Helvetica,sans-Serif" font-size="10.00" fill="white">443→TG:8080</text>
</g>
<!-- cf&#45;&gt;alb_a -->
<g id="edge5" class="edge">
<title>cf&#45;&gt;alb_a</title>
<path fill="none" stroke="#1d4ed8" stroke-width="2" d="M253.57,-442.09C257.71,-436.45 261.56,-430.39 264.5,-424.25 279.38,-393.12 286.16,-353.66 289.18,-327.72"/>
<polygon fill="#1d4ed8" stroke="#1d4ed8" stroke-width="2" points="292.69,-327.81 290.26,-317.5 285.73,-327.08 292.69,-327.81"/>
<text text-anchor="middle" x="316" y="-413.05" font-family="Times,serif" font-size="14.00">HTTPS /api/*</text>
</g>
<!-- alb_b -->
<g id="node9" class="node">
<title>alb_b</title>
<polygon fill="#1d4ed8" stroke="#333333" points="680,-317.25 601,-317.25 597,-313.25 597,-281.25 676,-281.25 680,-285.25 680,-317.25"/>
<polyline fill="none" stroke="#333333" points="676,-313.25 597,-313.25 "/>
<polyline fill="none" stroke="#333333" points="676,-313.25 676,-281.25 "/>
<polyline fill="none" stroke="#333333" points="676,-313.25 680,-317.25 "/>
<text text-anchor="middle" x="638.5" y="-302.25" font-family="Helvetica,sans-Serif" font-size="10.00" fill="white">ALB (AZ B)</text>
<text text-anchor="middle" x="638.5" y="-291.25" font-family="Helvetica,sans-Serif" font-size="10.00" fill="white">443→TG:8080</text>
</g>
<!-- cf&#45;&gt;alb_b -->
<g id="edge6" class="edge">
<title>cf&#45;&gt;alb_b</title>
<path fill="none" stroke="#1d4ed8" stroke-width="2" d="M283.12,-470.46C350.69,-465.5 464.02,-449.93 547.5,-401.25 579.32,-382.69 606.16,-349.23 622.27,-325.92"/>
<polygon fill="#1d4ed8" stroke="#1d4ed8" stroke-width="2" points="625.23,-327.8 627.91,-317.54 619.42,-323.89 625.23,-327.8"/>
<text text-anchor="middle" x="578" y="-413.05" font-family="Times,serif" font-size="14.00">HTTPS /api/*</text>
</g>
<!-- ec2 -->
<g id="node10" class="node">
<title>ec2</title>
<path fill="#1d4ed8" stroke="#333333" stroke-width="3" d="M400.5,-178.25C400.5,-178.25 324.5,-178.25 324.5,-178.25 318.5,-178.25 312.5,-172.25 312.5,-166.25 312.5,-166.25 312.5,-154.25 312.5,-154.25 312.5,-148.25 318.5,-142.25 324.5,-142.25 324.5,-142.25 400.5,-142.25 400.5,-142.25 406.5,-142.25 412.5,-148.25 412.5,-154.25 412.5,-154.25 412.5,-166.25 412.5,-166.25 412.5,-172.25 406.5,-178.25 400.5,-178.25"/>
<text text-anchor="middle" x="362.5" y="-163.25" font-family="Helvetica,sans-Serif" font-size="10.00" fill="white">EC2 Backend</text>
<text text-anchor="middle" x="362.5" y="-152.25" font-family="Helvetica,sans-Serif" font-size="10.00" fill="white">Spring Boot:8080</text>
</g>
<!-- alb_a&#45;&gt;ec2 -->
<g id="edge7" class="edge">
<title>alb_a&#45;&gt;ec2</title>
<path fill="none" stroke="#1d4ed8" stroke-width="2" d="M275.78,-281.03C267.62,-269.93 260.49,-255.19 266.5,-242.25 277.92,-217.68 300.87,-197.88 321.46,-184"/>
<polygon fill="#1d4ed8" stroke="#1d4ed8" stroke-width="2" points="323.6,-186.79 330.11,-178.43 319.81,-180.91 323.6,-186.79"/>
<text text-anchor="middle" x="299.5" y="-246.05" font-family="Times,serif" font-size="14.00">TG :8080</text>
</g>
<!-- bastion -->
<g id="node7" class="node">
<title>bastion</title>
<path fill="#f59e0b" stroke="#333333" stroke-width="2" d="M425.5,-317.25C425.5,-317.25 363.5,-317.25 363.5,-317.25 357.5,-317.25 351.5,-311.25 351.5,-305.25 351.5,-305.25 351.5,-293.25 351.5,-293.25 351.5,-287.25 357.5,-281.25 363.5,-281.25 363.5,-281.25 425.5,-281.25 425.5,-281.25 431.5,-281.25 437.5,-287.25 437.5,-293.25 437.5,-293.25 437.5,-305.25 437.5,-305.25 437.5,-311.25 431.5,-317.25 425.5,-317.25"/>
<text text-anchor="middle" x="394.5" y="-302.25" font-family="Helvetica,sans-Serif" font-size="10.00">Bastion Host</text>
<text text-anchor="middle" x="394.5" y="-291.25" font-family="Helvetica,sans-Serif" font-size="10.00">SSH Jump Box</text>
</g>
<!-- bastion&#45;&gt;ec2 -->
<g id="edge11" class="edge">
<title>bastion&#45;&gt;ec2</title>
<path fill="none" stroke="#f59e0b" stroke-width="2" stroke-dasharray="5,2" d="M362.92,-281.16C354.39,-274.86 346.21,-266.86 341.5,-257.25 330.65,-235.14 338.72,-207.43 347.81,-187.48"/>
<polygon fill="#f59e0b" stroke="#f59e0b" stroke-width="2" points="351.02,-188.88 352.29,-178.36 344.74,-185.8 351.02,-188.88"/>
<text text-anchor="middle" x="416.5" y="-246.05" font-family="Times,serif" font-size="14.00">SSH to Backend EC2</text>
</g>
<!-- rds -->
<g id="node12" class="node">
<title>rds</title>
<path fill="#15803d" stroke="#333333" stroke-width="3" d="M566,-69.6C566,-71.68 542.02,-73.38 512.5,-73.38 482.98,-73.38 459,-71.68 459,-69.6 459,-69.6 459,-35.65 459,-35.65 459,-33.57 482.98,-31.87 512.5,-31.87 542.02,-31.87 566,-33.57 566,-35.65 566,-35.65 566,-69.6 566,-69.6"/>
<path fill="none" stroke="#333333" stroke-width="3" d="M566,-69.6C566,-67.52 542.02,-65.83 512.5,-65.83 482.98,-65.83 459,-67.52 459,-69.6"/>
<text text-anchor="middle" x="512.5" y="-55.62" font-family="Helvetica,sans-Serif" font-size="10.00" fill="white">RDS PostgreSQL</text>
<text text-anchor="middle" x="512.5" y="-44.62" font-family="Helvetica,sans-Serif" font-size="10.00" fill="white">(DB Subnet Group)</text>
</g>
<!-- bastion&#45;&gt;rds -->
<g id="edge12" class="edge">
<title>bastion&#45;&gt;rds</title>
<path fill="none" stroke="#f59e0b" stroke-width="2" stroke-dasharray="5,2" d="M416.99,-281.18C425.78,-275.27 436.21,-269.17 446.5,-265.25 467.12,-257.4 480.63,-273.56 495.5,-257.25 504.13,-247.78 502.41,-155.01 503.5,-142.25 505.18,-122.6 507.42,-100.53 509.25,-83.33"/>
<polygon fill="#f59e0b" stroke="#f59e0b" stroke-width="2" points="512.73,-83.64 510.32,-73.32 505.77,-82.89 512.73,-83.64"/>
<text text-anchor="middle" x="576" y="-156.55" font-family="Times,serif" font-size="14.00">psql to RDS (admin)</text>
</g>
<!-- nat -->
<g id="node8" class="node">
<title>nat</title>
<path fill="#e5e7eb" stroke="#333333" d="M523.5,-317.25C523.5,-317.25 467.5,-317.25 467.5,-317.25 461.5,-317.25 455.5,-311.25 455.5,-305.25 455.5,-305.25 455.5,-293.25 455.5,-293.25 455.5,-287.25 461.5,-281.25 467.5,-281.25 467.5,-281.25 523.5,-281.25 523.5,-281.25 529.5,-281.25 535.5,-287.25 535.5,-293.25 535.5,-293.25 535.5,-305.25 535.5,-305.25 535.5,-311.25 529.5,-317.25 523.5,-317.25"/>
<text text-anchor="middle" x="495.5" y="-302.25" font-family="Helvetica,sans-Serif" font-size="10.00">NAT Instance</text>
<text text-anchor="middle" x="495.5" y="-291.25" font-family="Helvetica,sans-Serif" font-size="10.00">(fck_nat)</text>
</g>
<!-- nat&#45;&gt;ec2 -->
<g id="edge13" class="edge">
<title>nat&#45;&gt;ec2</title>
<path fill="none" stroke="#6b7280" stroke-dasharray="1,5" d="M498.13,-281.13C499.05,-269.38 498.47,-253.87 491.5,-242.25 488.72,-237.62 436.93,-205.9 399.83,-183.56"/>
<polygon fill="#6b7280" stroke="#6b7280" points="401.6,-180.54 391.23,-178.39 397.99,-186.54 401.6,-180.54"/>
</g>
<!-- nat&#45;&gt;rds -->
<g id="edge14" class="edge">
<title>nat&#45;&gt;rds</title>
<path fill="none" stroke="#6b7280" stroke-dasharray="1,5" d="M519.31,-281.18C527.9,-275.55 537.86,-269.63 547.5,-265.25 591.8,-245.13 623.37,-273.22 652.5,-234.25 676.98,-201.5 672.22,-178.07 652.5,-142.25 635.73,-111.78 603.57,-90.32 574.29,-76.16"/>
<polygon fill="#6b7280" stroke="#6b7280" points="575.46,-72.84 564.92,-71.82 572.52,-79.2 575.46,-72.84"/>
</g>
<!-- alb_b&#45;&gt;ec2 -->
<g id="edge8" class="edge">
<title>alb_b&#45;&gt;ec2</title>
<path fill="none" stroke="#1d4ed8" stroke-width="2" d="M596.95,-282.2C557.89,-266.95 502.38,-244.82 481.5,-234.25 451.78,-219.2 419.67,-199.27 396.31,-184.04"/>
<polygon fill="#1d4ed8" stroke="#1d4ed8" stroke-width="2" points="398.08,-181.02 387.8,-178.45 394.24,-186.87 398.08,-181.02"/>
<text text-anchor="middle" x="562.5" y="-246.05" font-family="Times,serif" font-size="14.00">TG :8080</text>
</g>
<!-- secrets -->
<g id="node11" class="node">
<title>secrets</title>
<polygon fill="#bbf7d0" stroke="#333333" points="373.5,-70.62 275.5,-70.62 275.5,-66.62 271.5,-66.62 271.5,-62.62 275.5,-62.62 275.5,-42.62 271.5,-42.62 271.5,-38.62 275.5,-38.62 275.5,-34.62 373.5,-34.62 373.5,-70.62"/>
<polyline fill="none" stroke="#333333" points="275.5,-66.62 279.5,-66.62 279.5,-62.62 275.5,-62.62 "/>
<polyline fill="none" stroke="#333333" points="275.5,-42.62 279.5,-42.62 279.5,-38.62 275.5,-38.62 "/>
<text text-anchor="middle" x="324.5" y="-55.62" font-family="Helvetica,sans-Serif" font-size="10.00">Secrets Manager</text>
<text text-anchor="middle" x="324.5" y="-44.62" font-family="Helvetica,sans-Serif" font-size="10.00">(DB creds)</text>
</g>
<!-- ec2&#45;&gt;secrets -->
<g id="edge10" class="edge">
<title>ec2&#45;&gt;secrets</title>
<path fill="none" stroke="#6b7280" d="M338.5,-141.92C333.26,-136.87 328.41,-130.89 325.5,-124.25 319.59,-110.78 319,-94.43 320.04,-80.86"/>
<polygon fill="#6b7280" stroke="#6b7280" points="323.54,-80.99 321.15,-70.67 316.58,-80.23 323.54,-80.99"/>
<text text-anchor="middle" x="365.5" y="-113.05" font-family="Times,serif" font-size="14.00">fetch creds</text>
</g>
<!-- ec2&#45;&gt;rds -->
<g id="edge9" class="edge">
<title>ec2&#45;&gt;rds</title>
<path fill="none" stroke="#15803d" stroke-width="2" d="M382.39,-142.1C395.03,-131.73 412.07,-118.73 428.5,-109.25 436.44,-104.67 439.53,-105.77 447.5,-101.25 458.63,-94.95 470.09,-87.07 480.24,-79.55"/>
<polygon fill="#15803d" stroke="#15803d" stroke-width="2" points="482.56,-82.19 488.42,-73.36 478.33,-76.61 482.56,-82.19"/>
<text text-anchor="middle" x="463.5" y="-113.05" font-family="Times,serif" font-size="14.00">TCP 5432</text>
</g>
<!-- legend -->
<g id="node13" class="node">
<title>legend</title>
<polygon fill="#fef9c3" stroke="#333333" points="569.5,-698.68 285.5,-698.68 285.5,-635.68 575.5,-635.68 575.5,-692.68 569.5,-698.68"/>
<polyline fill="none" stroke="#333333" points="569.5,-698.68 569.5,-692.68 "/>
<polyline fill="none" stroke="#333333" points="575.5,-692.68 569.5,-692.68 "/>
<text text-anchor="middle" x="430.5" y="-686.68" font-family="Helvetica,sans-Serif" font-size="10.00">Subnets shown by AZ:</text>
<text text-anchor="middle" x="430.5" y="-675.68" font-family="Helvetica,sans-Serif" font-size="10.00">• Public: ALB (A,B), Bastion &amp; NAT (A)</text>
<text text-anchor="middle" x="430.5" y="-664.68" font-family="Helvetica,sans-Serif" font-size="10.00">• Private App (A): EC2 Backend, Secrets</text>
<text text-anchor="middle" x="430.5" y="-653.68" font-family="Helvetica,sans-Serif" font-size="10.00">• Private DB (B): RDS</text>
<text text-anchor="middle" x="430.5" y="-642.68" font-family="Helvetica,sans-Serif" font-size="10.00">— Core path in Blue; Data in Green; Bastion in Amber —</text>
</g>
</g>
</svg>
